<?xml version="1.0" encoding="UTF-8" standalone="no"?>
<!DOCTYPE svg PUBLIC "-//W3C//DTD SVG 1.1//EN" "http://www.w3.org/Graphics/SVG/1.1/DTD/svg11.dtd">
<svg width="100%" height="100%" viewBox="0 0 526 158" version="1.1" xmlns="http://www.w3.org/2000/svg" xmlns:xlink="http://www.w3.org/1999/xlink" xml:space="preserve" xmlns:serif="http://www.serif.com/" style="fill-rule:evenodd;clip-rule:evenodd;stroke-linejoin:round;stroke-miterlimit:2;">
    <g transform="matrix(1,0,0,1,-107.085,-412.38)">
        <g transform="matrix(8.97198,0,0,8.97198,-1638.14,-3563.76)">
            <path d="M203.76,455.87C203.76,456.254 203.74,456.606 203.7,456.926C203.66,457.246 203.568,457.522 203.424,457.754C203.28,457.986 203.072,458.166 202.8,458.294C202.528,458.422 202.16,458.486 201.696,458.486C201.056,458.486 200.452,458.318 199.884,457.982C199.316,457.646 198.82,457.17 198.396,456.554C197.972,455.938 197.636,455.198 197.388,454.334C197.14,453.47 197.016,452.502 197.016,451.43C197.016,450.278 197.136,449.234 197.376,448.298C197.616,447.362 197.952,446.562 198.384,445.898C198.816,445.234 199.324,444.722 199.908,444.362C200.492,444.002 201.128,443.822 201.816,443.822C203.224,443.822 204.208,444.526 204.768,445.934C204.896,446.254 204.996,446.522 205.068,446.738C205.14,446.954 205.264,447.062 205.44,447.062C205.648,447.062 205.752,446.838 205.752,446.39C205.752,445.03 205.656,444.254 205.464,444.062C205.384,443.966 205.236,443.866 205.02,443.762C204.804,443.658 204.54,443.562 204.228,443.474C203.916,443.386 203.568,443.314 203.184,443.258C202.8,443.202 202.392,443.174 201.96,443.174C200.888,443.174 199.896,443.382 198.984,443.798C198.072,444.214 197.288,444.79 196.632,445.526C195.976,446.262 195.46,447.138 195.084,448.154C194.708,449.17 194.52,450.278 194.52,451.478C194.52,452.598 194.688,453.63 195.024,454.574C195.36,455.518 195.828,456.33 196.428,457.01C197.028,457.69 197.748,458.222 198.588,458.606C199.428,458.99 200.344,459.182 201.336,459.182C201.976,459.182 202.58,459.122 203.148,459.002C203.716,458.882 204.216,458.714 204.648,458.498C205.08,458.282 205.42,458.018 205.668,457.706C205.916,457.394 206.04,457.054 206.04,456.686L206.04,453.038C206.04,452.622 206.076,452.346 206.148,452.21C206.22,452.074 206.4,451.974 206.688,451.91C206.832,451.878 206.964,451.858 207.084,451.85C207.204,451.842 207.308,451.83 207.396,451.814C207.484,451.798 207.556,451.766 207.612,451.718C207.668,451.67 207.696,451.59 207.696,451.478C207.696,451.27 207.576,451.166 207.336,451.166C207.224,451.166 206.968,451.198 206.568,451.262C206.168,451.326 205.584,451.358 204.816,451.358C204.128,451.358 203.58,451.326 203.172,451.262C202.764,451.198 202.48,451.166 202.32,451.166C202.048,451.166 201.912,451.278 201.912,451.502C201.912,451.614 201.94,451.69 201.996,451.73C202.052,451.77 202.132,451.798 202.236,451.814C202.34,451.83 202.46,451.842 202.596,451.85C202.732,451.858 202.888,451.878 203.064,451.91C203.384,451.99 203.58,452.094 203.652,452.222C203.724,452.35 203.76,452.622 203.76,453.038L203.76,455.87Z" style="fill:rgb(242,242,242);fill-rule:nonzero;"/>
            <path d="M213,444.302C212.888,443.966 212.808,443.694 212.76,443.486C212.712,443.278 212.6,443.174 212.424,443.174C212.296,443.174 212.212,443.226 212.172,443.33C212.132,443.434 212.08,443.574 212.016,443.75L208.2,456.134C208.072,456.566 207.952,456.93 207.84,457.226C207.728,457.522 207.56,457.75 207.336,457.91C207.208,458.006 207.076,458.062 206.94,458.078C206.804,458.094 206.676,458.11 206.556,458.126C206.436,458.142 206.336,458.17 206.256,458.21C206.176,458.25 206.136,458.334 206.136,458.462C206.136,458.67 206.28,458.774 206.568,458.774C206.744,458.774 206.964,458.754 207.228,458.714C207.492,458.674 207.8,458.654 208.152,458.654C208.664,458.654 209.096,458.678 209.448,458.726C209.8,458.774 210.064,458.798 210.24,458.798C210.512,458.798 210.648,458.702 210.648,458.51C210.648,458.334 210.568,458.214 210.408,458.15C210.248,458.086 210.008,458.03 209.688,457.982C209.464,457.95 209.304,457.894 209.208,457.814C209.112,457.734 209.064,457.574 209.064,457.334C209.064,457.046 209.184,456.43 209.424,455.486L210,453.35C210.016,453.286 210.052,453.234 210.108,453.194C210.164,453.154 210.216,453.134 210.264,453.134L213.24,453.134C213.448,453.134 213.568,453.198 213.6,453.326L214.536,456.398C214.68,456.91 214.752,457.27 214.752,457.478C214.752,457.702 214.688,457.854 214.56,457.934C214.432,458.014 214.168,458.054 213.768,458.054C213.448,458.054 213.288,458.182 213.288,458.438C213.288,458.63 213.424,458.726 213.696,458.726C213.856,458.726 214.14,458.706 214.548,458.666C214.956,458.626 215.496,458.606 216.168,458.606C216.648,458.606 217.052,458.63 217.38,458.678C217.708,458.726 217.976,458.75 218.184,458.75C218.52,458.75 218.688,458.638 218.688,458.414C218.688,458.27 218.596,458.186 218.412,458.162C218.228,458.138 218.024,458.046 217.8,457.886C217.48,457.678 217.248,457.406 217.104,457.07C216.96,456.734 216.8,456.286 216.624,455.726L213,444.302ZM211.824,447.614L213.12,451.79C213.152,451.918 213.168,451.998 213.168,452.03C213.168,452.078 213.144,452.122 213.096,452.162C213.048,452.202 213,452.222 212.952,452.222L210.552,452.222C210.44,452.222 210.384,452.174 210.384,452.078L210.384,452.006C210.384,451.958 210.392,451.902 210.408,451.838L211.536,447.59C211.568,447.462 211.616,447.398 211.68,447.398C211.728,447.398 211.776,447.47 211.824,447.614Z" style="fill:rgb(242,242,242);fill-rule:nonzero;"/>
            <path d="M218.76,443.654C218.536,443.654 218.424,443.758 218.424,443.966C218.424,444.094 218.452,444.178 218.508,444.218C218.564,444.258 218.64,444.282 218.736,444.29C218.832,444.298 218.944,444.306 219.072,444.314C219.2,444.322 219.336,444.35 219.48,444.398C219.704,444.478 219.848,444.59 219.912,444.734C219.976,444.878 220.008,445.134 220.008,445.502C220.008,445.63 220.004,445.734 219.996,445.814C219.988,445.894 219.984,445.95 219.984,445.982L219.576,454.19C219.544,454.91 219.512,455.514 219.48,456.002C219.448,456.49 219.4,456.886 219.336,457.19C219.272,457.494 219.176,457.714 219.048,457.85C218.92,457.986 218.752,458.054 218.544,458.054C218.496,458.054 218.436,458.05 218.364,458.042C218.292,458.034 218.208,458.03 218.112,458.03C217.888,458.03 217.776,458.15 217.776,458.39C217.776,458.646 217.968,458.774 218.352,458.774C218.528,458.774 218.74,458.758 218.988,458.726C219.236,458.694 219.52,458.678 219.84,458.678C220.208,458.678 220.532,458.694 220.812,458.726C221.092,458.758 221.32,458.774 221.496,458.774C221.896,458.774 222.096,458.646 222.096,458.39C222.096,458.15 221.944,458.03 221.64,458.03C221.576,458.03 221.52,458.034 221.472,458.042C221.424,458.05 221.376,458.054 221.328,458.054C220.864,458.054 220.568,457.882 220.44,457.538C220.312,457.194 220.248,456.646 220.248,455.894C220.248,455.718 220.252,455.518 220.26,455.294C220.268,455.07 220.28,454.822 220.296,454.55L220.704,447.206C220.72,446.902 220.768,446.75 220.848,446.75C220.88,446.75 220.936,446.854 221.016,447.062L224.592,457.982C224.64,458.174 224.768,458.27 224.976,458.27C225.152,458.27 225.28,458.15 225.36,457.91L228.888,447.038C228.936,446.878 228.984,446.798 229.032,446.798C229.112,446.798 229.152,446.886 229.152,447.062L229.32,455.942L229.32,456.494C229.32,456.782 229.312,457.022 229.296,457.214C229.28,457.406 229.228,457.562 229.14,457.682C229.052,457.802 228.924,457.886 228.756,457.934C228.588,457.982 228.352,458.006 228.048,458.006C227.808,458.006 227.688,458.126 227.688,458.366C227.688,458.622 227.848,458.75 228.168,458.75C228.392,458.75 228.7,458.722 229.092,458.666C229.484,458.61 229.944,458.582 230.472,458.582C230.952,458.582 231.372,458.61 231.732,458.666C232.092,458.722 232.4,458.75 232.656,458.75C232.816,458.75 232.94,458.714 233.028,458.642C233.116,458.57 233.16,458.486 233.16,458.39C233.16,458.246 233.128,458.15 233.064,458.102C233,458.054 232.916,458.026 232.812,458.018C232.708,458.01 232.584,458.002 232.44,457.994C232.296,457.986 232.152,457.95 232.008,457.886C231.752,457.774 231.604,457.622 231.564,457.43C231.524,457.238 231.496,456.926 231.48,456.494L231.216,445.982L231.216,445.406C231.216,445.086 231.236,444.866 231.276,444.746C231.316,444.626 231.424,444.526 231.6,444.446C231.744,444.382 231.884,444.346 232.02,444.338C232.156,444.33 232.28,444.318 232.392,444.302C232.504,444.286 232.596,444.258 232.668,444.218C232.74,444.178 232.776,444.094 232.776,443.966C232.776,443.758 232.664,443.654 232.44,443.654L229.344,443.654C229.216,443.654 229.124,443.69 229.068,443.762C229.012,443.834 228.968,443.934 228.936,444.062L225.792,453.59C225.728,453.766 225.664,453.854 225.6,453.854C225.552,453.854 225.496,453.758 225.432,453.566L222.24,443.87C222.208,443.774 222.164,443.714 222.108,443.69C222.052,443.666 221.984,443.654 221.904,443.654L218.76,443.654Z" style="fill:rgb(242,242,242);fill-rule:nonzero;"/>
            <path d="M243.144,446.486L243.144,444.326C243.144,444.07 243.112,443.886 243.048,443.774C242.984,443.662 242.792,443.606 242.472,443.606C242.312,443.606 241.84,443.622 241.056,443.654C240.272,443.686 239.176,443.702 237.768,443.702C236.664,443.702 235.816,443.686 235.224,443.654C234.632,443.622 234.288,443.606 234.192,443.606C233.92,443.606 233.784,443.718 233.784,443.942C233.784,444.07 233.812,444.154 233.868,444.194C233.924,444.234 234,444.262 234.096,444.278C234.192,444.294 234.304,444.302 234.432,444.302C234.56,444.302 234.688,444.326 234.816,444.374C235.04,444.454 235.172,444.566 235.212,444.71C235.252,444.854 235.272,445.11 235.272,445.478L235.272,456.47C235.272,456.934 235.24,457.286 235.176,457.526C235.112,457.766 234.904,457.91 234.552,457.958C234.248,458.006 234,458.03 233.808,458.03C233.616,458.03 233.52,458.134 233.52,458.342C233.52,458.598 233.696,458.726 234.048,458.726C234.144,458.726 234.38,458.706 234.756,458.666C235.132,458.626 235.68,458.606 236.4,458.606C237.952,458.606 239.236,458.638 240.252,458.702C241.268,458.766 242.024,458.798 242.52,458.798C242.696,458.798 242.828,458.79 242.916,458.774C243.004,458.758 243.072,458.718 243.12,458.654C243.168,458.59 243.2,458.506 243.216,458.402C243.232,458.298 243.248,458.15 243.264,457.958L243.528,455.63C243.544,455.502 243.556,455.398 243.564,455.318C243.572,455.238 243.576,455.198 243.576,455.198C243.576,455.166 243.548,455.122 243.492,455.066C243.436,455.01 243.384,454.982 243.336,454.982C243.144,454.982 242.976,455.146 242.832,455.474C242.688,455.802 242.472,456.19 242.184,456.638C241.992,456.926 241.8,457.162 241.608,457.346C241.416,457.53 241.2,457.67 240.96,457.766C240.72,457.862 240.452,457.926 240.156,457.958C239.86,457.99 239.528,458.006 239.16,458.006C238.808,458.006 238.52,457.986 238.296,457.946C238.072,457.906 237.896,457.834 237.768,457.73C237.64,457.626 237.552,457.474 237.504,457.274C237.456,457.074 237.432,456.806 237.432,456.47L237.432,451.526C237.432,451.35 237.46,451.234 237.516,451.178C237.572,451.122 237.688,451.094 237.864,451.094L238.92,451.094C239.432,451.094 239.848,451.134 240.168,451.214C240.488,451.294 240.744,451.518 240.936,451.886C241.064,452.126 241.16,452.346 241.224,452.546C241.288,452.746 241.34,452.922 241.38,453.074C241.42,453.226 241.468,453.346 241.524,453.434C241.58,453.522 241.656,453.566 241.752,453.566C241.944,453.566 242.04,453.422 242.04,453.134C242.04,453.022 242.028,452.794 242.004,452.45C241.98,452.106 241.968,451.654 241.968,451.094C241.968,450.614 241.988,450.174 242.028,449.774C242.068,449.374 242.088,449.022 242.088,448.718C242.088,448.494 241.992,448.382 241.8,448.382C241.672,448.382 241.588,448.43 241.548,448.526C241.508,448.622 241.472,448.742 241.44,448.886C241.408,449.03 241.36,449.186 241.296,449.354C241.232,449.522 241.12,449.686 240.96,449.846C240.848,449.958 240.608,450.058 240.24,450.146C239.872,450.234 239.44,450.278 238.944,450.278L237.864,450.278C237.64,450.278 237.512,450.25 237.48,450.194C237.448,450.138 237.432,450.006 237.432,449.798L237.432,445.838C237.432,445.55 237.444,445.314 237.468,445.13C237.492,444.946 237.548,444.798 237.636,444.686C237.724,444.574 237.856,444.494 238.032,444.446C238.208,444.398 238.456,444.374 238.776,444.374C240.072,444.374 241.048,444.678 241.704,445.286C241.912,445.478 242.072,445.682 242.184,445.898C242.296,446.114 242.384,446.31 242.448,446.486C242.512,446.662 242.572,446.806 242.628,446.918C242.684,447.03 242.768,447.086 242.88,447.086C243.056,447.086 243.144,446.886 243.144,446.486Z" style="fill:rgb(242,242,242);fill-rule:nonzero;"/>
            <path d="M248.688,443.198C248.128,443.198 247.62,443.294 247.164,443.486C246.708,443.678 246.32,443.906 246,444.17C245.68,444.434 245.432,444.71 245.256,444.998C245.08,445.286 244.992,445.534 244.992,445.742C244.992,445.966 245.056,446.078 245.184,446.078C245.344,446.078 245.456,446.002 245.52,445.85C245.584,445.698 245.712,445.502 245.904,445.262C246.208,444.878 246.516,444.59 246.828,444.398C247.14,444.206 247.496,444.11 247.896,444.11C248.376,444.11 248.78,444.294 249.108,444.662C249.436,445.03 249.6,445.502 249.6,446.078C249.6,446.782 249.368,447.41 248.904,447.962C248.44,448.514 247.816,449.11 247.032,449.75C246.392,450.262 245.896,450.634 245.544,450.866C245.192,451.098 245.016,451.326 245.016,451.55C245.016,451.63 245.044,451.694 245.1,451.742C245.156,451.79 245.216,451.814 245.28,451.814C245.328,451.814 245.412,451.778 245.532,451.706C245.652,451.634 245.808,451.554 246,451.466C246.192,451.378 246.424,451.298 246.696,451.226C246.968,451.154 247.28,451.118 247.632,451.118C248.736,451.118 249.608,451.466 250.248,452.162C250.888,452.858 251.208,453.814 251.208,455.03C251.208,455.798 251.092,456.482 250.86,457.082C250.628,457.682 250.34,458.186 249.996,458.594C249.652,459.002 249.288,459.31 248.904,459.518C248.52,459.726 248.176,459.83 247.872,459.83C247.648,459.83 247.444,459.75 247.26,459.59C247.076,459.43 246.9,459.258 246.732,459.074C246.564,458.89 246.388,458.718 246.204,458.558C246.02,458.398 245.816,458.318 245.592,458.318C245.016,458.318 244.728,458.654 244.728,459.326C244.728,460.27 245.448,460.742 246.888,460.742C247.576,460.742 248.312,460.538 249.096,460.13C249.88,459.722 250.624,459.11 251.328,458.294C252.528,456.902 253.128,455.398 253.128,453.782C253.128,452.758 252.932,451.898 252.54,451.202C252.148,450.506 251.576,449.998 250.824,449.678C250.504,449.534 250.212,449.442 249.948,449.402C249.684,449.362 249.46,449.334 249.276,449.318C249.092,449.302 248.944,449.294 248.832,449.294C248.736,449.294 248.688,449.27 248.688,449.222C248.688,449.126 248.856,449.002 249.192,448.85C249.528,448.698 249.928,448.438 250.392,448.07C250.84,447.718 251.164,447.35 251.364,446.966C251.564,446.582 251.664,446.126 251.664,445.598C251.664,444.91 251.404,444.338 250.884,443.882C250.364,443.426 249.632,443.198 248.688,443.198Z" style="fill:rgb(242,242,242);fill-rule:nonzero;"/>
        </g>
    </g>
</svg>
